<svg width="1512" height="234" viewBox="0 0 1512 234" fill="none" xmlns="http://www.w3.org/2000/svg">
<g clip-path="url(#clip0_374_424)">
<mask id="mask0_374_424" style="mask-type:luminance" maskUnits="userSpaceOnUse" x="0" y="0" width="1512" height="234">
<path d="M1512 0H0V234H1512V0Z" fill="white"/>
</mask>
<g mask="url(#mask0_374_424)">
<path d="M1512 0H0V234H1512V0Z" fill="url(#paint0_linear_374_424)"/>
<mask id="mask1_374_424" style="mask-type:luminance" maskUnits="userSpaceOnUse" x="0" y="0" width="1920" height="237">
<path d="M1920 0H0V237H1920V0Z" fill="white"/>
</mask>
<g mask="url(#mask1_374_424)">
<path opacity="0.1" d="M-2.64136 59.1572C119.34 60.4043 196.223 95.7109 389.823 139.708C518.89 169.039 728.22 179.266 1017.81 170.39C628.367 269.238 288.216 265.761 -2.64136 159.957" fill="white"/>
<path opacity="0.1" d="M131.806 199.936C370.333 156.275 570.302 129.776 731.714 120.437C893.125 111.098 1087.09 115.354 1313.6 133.203C1249.16 134.613 1086.79 159.786 826.494 208.722C566.2 257.658 334.637 254.729 131.806 199.936Z" fill="white"/>
<path opacity="0.2" d="M1403.68 128.603C1517.73 98.5894 1717.05 82.8308 1932.05 113.159V220.495C1706.41 163.951 1530.29 133.32 1403.68 128.603Z" fill="white"/>
<path d="M-4.71582 147.94C71.4202 173.704 126.708 190.66 161.145 198.802C238.629 217.127 309.673 223.574 360.41 227.835C413.278 232.271 527.934 230.983 614.505 225.42C649.105 223.198 692.083 218.306 743.441 210.75C795.635 202.474 831.431 196.305 850.828 192.249C887.282 184.63 952.607 168.737 972.914 164.199C1043.99 148.319 1095.58 132.475 1145.97 123.563C1235.2 107.786 1279.55 105.571 1354.18 102.761C1420.76 104.166 1470.08 106.388 1502.14 109.423C1556.55 114.575 1619.63 126.141 1655.63 132.168C1723.46 143.521 1815.56 165.952 1931.9 199.459L1932.31 242.48L-3.82309 242.049L-4.71582 147.94Z" fill="white"/>
</g>
</g>
</g>
<defs>
<linearGradient id="paint0_linear_374_424" x1="0" y1="117" x2="1512" y2="117" gradientUnits="userSpaceOnUse">
<stop stop-color="#6F58C9"/>
<stop offset="1" stop-color="#6F58C9"/>
</linearGradient>
<clipPath id="clip0_374_424">
<rect width="1512" height="234" fill="white"/>
</clipPath>
</defs>
</svg>
