<svg viewBox="0 0 2156 2173" fill="none" xmlns="http://www.w3.org/2000/svg">
<path d="M1546.63 84.5H589.37C306.12 84.5 76.5 314.12 76.5 597.37V1554.63C76.5 1837.88 306.12 2067.5 589.37 2067.5H1546.63C1829.88 2067.5 2059.5 1837.88 2059.5 1554.63V597.37C2059.5 314.12 1829.88 84.5 1546.63 84.5Z" stroke="white" stroke-width="59.53" stroke-miterlimit="10"/>
<path d="M666 293C688 231 782 252 760 199C747 176 687 185 666 293Z" fill="white"/>
<path d="M1878.02 688.51C1940.02 710.51 1919.02 804.51 1972.02 782.51C1995.02 769.51 1986.02 709.51 1878.02 688.51Z" fill="white"/>
<path d="M261.35 1487.14C199.35 1465.14 220.35 1371.14 167.35 1393.14C144.35 1406.14 153.35 1466.14 261.35 1487.14Z" fill="white"/>
<path d="M1457.52 1878.31C1435.52 1940.31 1341.52 1919.31 1363.52 1972.31C1376.52 1995.31 1436.52 1986.31 1457.52 1878.31Z" fill="white"/>
<path d="M1877 1446C1963 1458 2012 1367 1982.35 1349.74C1922 1331 1953 1402 1877 1446Z" fill="white"/>
<path d="M1407.49 270.08C1419.49 184.08 1328.49 135.08 1311.23 164.73C1292.49 225.08 1363.49 194.08 1407.49 270.08Z" fill="white"/>
<path d="M261.24 754.22C175.24 742.22 126.24 833.22 155.89 850.48C216.24 869.22 185.24 798.22 261.24 754.22Z" fill="white"/>
<path d="M714.2 1902.47C702.2 1988.47 793.2 2037.47 810.46 2007.82C829.2 1947.47 758.2 1978.47 714.2 1902.47Z" fill="white"/>
<path d="M1640 249C1691 244 1709 168 1657 162C1601 162 1646 201 1640 249Z" fill="white"/>
<path d="M248.1 516.05C243.1 465.05 167.1 447.05 161.1 499.05C161.1 555.05 200.1 510.05 248.1 516.05Z" fill="white"/>
<path d="M473.98 1903.9C422.98 1908.9 404.98 1984.9 456.98 1990.9C512.98 1990.9 467.98 1951.9 473.98 1903.9Z" fill="white"/>
<path d="M1890.33 1684.02C1895.33 1735.02 1971.33 1753.02 1977.33 1701.02C1977.33 1645.02 1938.33 1690.02 1890.33 1684.02Z" fill="white"/>
<path d="M398 293C383 299 323 241 372.09 213.06C432 189 393 270 398 293Z" fill="white"/>
<path d="M1865.88 430.05C1859.88 415.05 1917.88 355.05 1945.82 404.14C1969.88 464.05 1888.88 425.05 1865.88 430.05Z" fill="white"/>
<path d="M1722.84 1892.71C1737.84 1886.71 1797.84 1944.71 1748.75 1972.65C1688.84 1996.71 1727.84 1915.71 1722.84 1892.71Z" fill="white"/>
<path d="M261.02 1734.56C267.02 1749.56 209.02 1809.56 181.08 1760.47C157.02 1700.56 238.02 1739.56 261.02 1734.56Z" fill="white"/>
<path d="M1077.5 1903C1528.44 1903 1894 1537.44 1894 1086.5C1894 635.56 1528.44 270 1077.5 270C626.56 270 261 635.56 261 1086.5C261 1537.44 626.56 1903 1077.5 1903Z" stroke="white" stroke-width="59.53" stroke-miterlimit="10"/>
<path d="M1488.03 373.11C1416 260 1583 206 1641 336C1709 260 1869 298 1793 485C1949 431 1911 664 1794 628C1722 528.91 1580.06 419.23 1488.03 373.11Z" fill="white" stroke="white" stroke-width="59.53" stroke-miterlimit="10"/>
<path d="M352.34 677.87C239.23 749.9 185.23 582.9 315.23 524.9C239.23 456.9 277.23 296.9 464.23 372.9C410.23 216.9 643.23 254.9 607.23 371.9C508.14 443.9 398.46 585.84 352.34 677.87Z" fill="white" stroke="white" stroke-width="59.53" stroke-miterlimit="10"/>
<path d="M647.78 1790.64C719.81 1903.75 552.81 1957.75 494.81 1827.75C426.81 1903.75 266.81 1865.75 342.81 1678.75C186.81 1732.75 224.81 1499.75 341.81 1535.75C413.81 1634.84 555.75 1744.52 647.78 1790.64Z" fill="white" stroke="white" stroke-width="59.53" stroke-miterlimit="10"/>
<path d="M1781.55 1522.2C1894.66 1450.17 1948.66 1617.17 1818.66 1675.17C1894.66 1743.17 1856.66 1903.17 1669.66 1827.17C1723.66 1983.17 1490.66 1945.17 1526.66 1828.17C1625.75 1756.17 1735.43 1614.23 1781.55 1522.2Z" fill="white" stroke="white" stroke-width="59.53" stroke-miterlimit="10"/>
<path d="M1077.56 1426.23C1077.56 1426.23 1078 720 928.25 527.5C785.99 1009 595.99 1325 588.99 1426C551.29 1627.69 687.99 1659 687.99 1659C687.99 1659 860.99 1691 898.39 1504.47C903.99 1466 842.99 1412 805.99 1490C773.99 1638 686.99 1627 686.99 1627C686.99 1627 595.99 1604 623.99 1426C628.78 1395.57 665.99 1299 686.99 1252C706.99 1244 904.99 1165 904.99 1165C912.99 1300 883.99 1428 883.99 1428L904.99 1429C904.99 1429 947.99 1130 906.99 867C906.99 867 960.99 789 960.82 788.47C1016.99 1106 996.1 1425.82 996.1 1425.82L1077.55 1426.24L1077.56 1426.23ZM780.14 1086.5C790.99 1052 858.99 927 891.99 888C903.99 952 902.99 1054 902.99 1054C891.99 1057 842.98 1065.58 780.14 1086.5Z" fill="white"/>
<path d="M1202 569C1102 568 1030 639 1094 680C1168 697 1148 611 1221 598L1183.99 1531.95H1123.65C1123.65 1531.95 1108 1544 1116 1554C1124 1564 1385 1544 1385 1544L1413.93 569C1413.93 569 1281 571 1202 569ZM1306 1527C1266 1531 1223 1530 1223 1530C1228.02 1419 1260 711 1260 597C1260 597 1324 597 1323.82 597C1324 665 1302 1451 1306 1527Z" fill="white"/>
<path d="M866 788H413V1428H589" stroke="white" stroke-width="17.01" stroke-miterlimit="10"/>
<path d="M504.8 788H398V946V1428H457.56" stroke="white" stroke-width="17.01" stroke-miterlimit="10"/>
<path d="M806 946.5L398 946" stroke="white" stroke-width="17.01" stroke-miterlimit="10"/>
<path d="M413 1110L745 1110.5" stroke="white" stroke-width="17.01" stroke-miterlimit="10"/>
<path d="M398.41 1274H904.47" stroke="white" stroke-width="17.01" stroke-miterlimit="10"/>
<path d="M413 1428H1188.2" stroke="white" stroke-width="17.01" stroke-miterlimit="10"/>
<path d="M1388.49 1428H1666L1666.5 788H1388.49" stroke="white" stroke-width="17.01" stroke-miterlimit="10"/>
<path d="M1611.37 788H1683.5L1680.5 1428H1611.37" stroke="white" stroke-width="17.01" stroke-miterlimit="10"/>
<path d="M1403.49 946H1666.41" stroke="white" stroke-width="17.01" stroke-miterlimit="10"/>
<path d="M1388.49 1110L1672.5 1110.5H1389" stroke="white" stroke-width="17.01" stroke-miterlimit="10"/>
<path d="M1388.49 1274H1683" stroke="white" stroke-width="17.01" stroke-miterlimit="10"/>
<path d="M1213 1110.5L1052.09 1110.01" stroke="white" stroke-width="17.01" stroke-miterlimit="10"/>
<path d="M1226 946.5L1046.38 946.01" stroke="white" stroke-width="17.01" stroke-miterlimit="10"/>
<path d="M1227 788H1015.03" stroke="white" stroke-width="17.01" stroke-miterlimit="10"/>
</svg>