<?xml version="1.0" standalone="no"?>
<!DOCTYPE svg PUBLIC "-//W3C//DTD SVG 20010904//EN"
 "http://www.w3.org/TR/2001/REC-SVG-20010904/DTD/svg10.dtd">
<svg version="1.0" xmlns="http://www.w3.org/2000/svg"
 width="2173.000000pt" height="2173.000000pt" viewBox="0 0 2173.000000 2173.000000"
 preserveAspectRatio="xMidYMid meet">
<metadata>
Created by potrace 1.14, written by Peter Selinger 2001-2017
</metadata>
<g transform="translate(0.000000,2173.000000) scale(0.100000,-0.100000)"
fill="#000000" stroke="none">
<path d="M5927 21184 c-1 -1 -81 -4 -177 -8 -96 -3 -193 -8 -215 -10 -22 -3
-67 -7 -100 -10 -88 -9 -228 -26 -245 -31 -8 -2 -40 -7 -70 -10 -84 -10 -378
-71 -508 -105 -677 -179 -1278 -464 -1842 -874 -56 -41 -291 -225 -300 -235
-3 -3 -41 -37 -85 -75 -87 -76 -388 -374 -474 -471 -46 -52 -196 -236 -269
-330 -120 -155 -318 -459 -417 -640 -44 -81 -205 -401 -205 -409 0 -2 -13 -33
-29 -68 -165 -361 -343 -994 -386 -1368 -3 -30 -8 -62 -10 -70 -3 -13 -12 -81
-20 -160 -4 -42 -15 -180 -21 -270 -6 -96 -7 -10029 0 -10130 7 -109 17 -243
21 -280 27 -226 32 -265 40 -310 3 -14 7 -41 10 -60 10 -63 56 -283 77 -365
11 -44 21 -87 23 -96 2 -9 13 -49 25 -90 206 -711 532 -1344 977 -1901 153
-191 214 -260 408 -454 292 -293 549 -503 870 -711 55 -36 112 -74 127 -84 15
-10 30 -19 33 -19 3 0 29 -15 58 -33 298 -189 874 -437 1257 -541 30 -8 80
-22 110 -30 48 -14 258 -63 300 -71 8 -1 31 -5 50 -9 19 -3 44 -8 55 -10 63
-12 218 -36 265 -41 30 -3 66 -8 80 -10 62 -10 157 -18 340 -30 102 -7 10054
-7 10155 -1 201 14 288 22 397 37 178 23 182 24 448 75 277 53 770 211 1028
330 41 19 76 34 79 34 14 0 362 180 487 252 120 70 416 262 458 297 7 6 56 44
108 83 338 256 705 618 971 958 420 536 716 1102 922 1760 42 134 65 212 72
250 2 8 10 42 18 75 16 61 61 282 71 345 3 19 8 46 10 60 7 40 25 170 31 230
3 30 8 71 10 90 5 43 16 187 21 260 4 76 4 10073 0 10135 -2 28 -7 93 -11 145
-3 52 -8 109 -10 125 -2 17 -6 57 -10 90 -3 33 -8 71 -10 85 -2 14 -7 48 -11
75 -3 28 -8 59 -10 70 -3 11 -7 36 -9 55 -3 19 -8 46 -11 60 -3 14 -8 36 -10
50 -65 373 -226 868 -405 1249 -27 57 -49 105 -49 106 0 10 -176 330 -233 425
-159 261 -360 534 -568 772 -107 123 -383 398 -501 498 -61 52 -116 100 -122
105 -6 6 -51 42 -101 81 -618 482 -1304 816 -2060 1002 -66 17 -133 32 -150
35 -16 3 -64 12 -105 21 -81 16 -235 41 -315 51 -27 3 -59 8 -70 10 -11 2 -60
7 -110 10 -49 4 -101 9 -115 11 -14 2 -95 7 -180 10 -124 5 -9857 12 -9863 8z
m9963 -607 c25 -3 77 -9 117 -11 39 -3 105 -10 145 -16 40 -6 91 -13 113 -16
66 -9 97 -14 150 -24 28 -6 61 -13 75 -15 14 -3 39 -8 55 -11 17 -3 66 -14
110 -25 44 -11 92 -23 108 -25 93 -17 535 -168 677 -232 30 -13 71 -31 90 -40
134 -58 387 -192 530 -280 338 -209 610 -422 885 -697 177 -176 235 -239 361
-395 365 -450 661 -997 838 -1549 32 -98 109 -382 122 -445 21 -109 53 -285
59 -326 20 -147 34 -277 42 -400 10 -140 10 -10052 0 -10200 -4 -63 -9 -126
-11 -140 -3 -14 -7 -56 -11 -95 -3 -38 -8 -81 -10 -95 -2 -14 -7 -43 -10 -65
-3 -22 -7 -51 -10 -65 -7 -40 -15 -82 -21 -120 -3 -19 -9 -51 -14 -70 -5 -19
-11 -52 -14 -74 -4 -21 -8 -41 -11 -45 -2 -4 -6 -19 -9 -33 -2 -14 -18 -79
-36 -144 -179 -671 -510 -1303 -971 -1854 -104 -124 -354 -383 -459 -475 -30
-26 -71 -62 -90 -80 -105 -94 -338 -268 -505 -377 -613 -399 -1291 -651 -2005
-743 -134 -18 -168 -21 -330 -32 -137 -10 -10043 -10 -10180 0 -99 7 -143 11
-250 22 -55 6 -126 15 -160 21 -14 2 -45 6 -70 10 -25 3 -53 8 -62 10 -10 3
-30 7 -45 10 -704 121 -1468 463 -2058 922 -221 172 -477 408 -636 588 -100
112 -114 128 -202 239 -399 501 -699 1093 -872 1720 -47 173 -68 265 -99 435
-5 32 -20 122 -21 135 -1 6 -4 30 -8 55 -4 25 -9 68 -12 95 -3 28 -8 64 -10
80 -17 129 -20 851 -20 5255 0 4338 3 5232 19 5259 2 3 7 42 11 85 4 43 9 88
11 100 2 12 6 41 9 66 3 25 9 59 12 75 3 17 7 39 9 50 47 313 182 758 334
1106 170 386 429 807 689 1119 130 157 170 200 331 360 684 682 1529 1131
2488 1319 84 17 178 33 210 36 31 3 64 8 72 10 8 2 44 7 80 11 36 3 79 8 95 9
17 2 77 7 135 10 58 4 106 8 108 9 5 6 10091 -2 10132 -7z"/>
<path d="M13286 20156 c-82 -31 -114 -90 -121 -224 -2 -35 1 -77 6 -94 22 -79
96 -145 224 -203 136 -61 330 -158 333 -166 2 -5 8 -9 13 -9 18 0 163 -116
223 -178 65 -67 162 -194 171 -223 10 -30 25 -22 26 14 8 208 -4 310 -56 458
-116 331 -435 616 -709 635 -48 3 -84 0 -110 -10z"/>
<path d="M16502 20095 c-151 -36 -165 -106 -82 -395 12 -41 23 -82 25 -90 2
-8 8 -37 14 -63 17 -74 25 -144 24 -229 l0 -77 36 5 c233 37 428 261 442 509
8 141 -66 267 -189 322 -68 30 -188 38 -270 18z"/>
<path d="M7413 19834 c-100 -20 -184 -70 -281 -166 -135 -134 -247 -341 -325
-598 -31 -104 -60 -221 -55 -225 2 -2 16 21 32 50 79 151 240 270 508 375 134
53 129 51 228 99 136 66 190 130 190 227 0 179 -119 274 -297 238z"/>
<path d="M3935 19639 c-145 -22 -266 -115 -309 -236 -17 -49 -14 -151 6 -209
43 -121 153 -262 261 -336 62 -42 137 -71 154 -60 5 4 10 33 11 64 1 55 9 107
54 343 27 146 30 317 5 362 -32 60 -95 85 -182 72z"/>
<path d="M15418 19425 c-2 -1 -36 -5 -76 -9 -288 -24 -558 -178 -711 -406 -86
-128 -141 -293 -143 -436 -1 -30 -5 -54 -9 -54 -4 0 -88 36 -186 79 -324 144
-794 317 -1066 392 -214 60 -461 122 -572 145 -11 2 -54 11 -95 19 -41 8 -84
17 -95 19 -56 11 -194 35 -220 39 -16 3 -59 10 -95 16 -36 5 -83 12 -105 15
-22 3 -71 10 -110 15 -38 6 -97 13 -130 16 -33 3 -78 8 -100 10 -22 3 -71 7
-110 10 -38 3 -87 8 -108 10 -225 24 -1016 25 -1247 0 -19 -2 -73 -6 -120 -10
-117 -9 -322 -32 -455 -51 -22 -3 -49 -7 -60 -9 -42 -5 -121 -18 -140 -22 -11
-2 -36 -6 -55 -9 -19 -2 -104 -18 -189 -35 -85 -17 -159 -32 -165 -33 -57 -11
-143 -31 -201 -47 -38 -10 -81 -21 -95 -23 -14 -3 -59 -15 -100 -26 -41 -11
-83 -23 -93 -25 -61 -14 -448 -138 -572 -183 -193 -71 -362 -137 -450 -177
-16 -7 -84 -37 -150 -66 -191 -84 -589 -286 -728 -370 -26 -16 -49 -29 -52
-29 -3 0 -33 -18 -68 -39 l-64 -39 2 112 c6 268 -83 503 -264 701 -90 99 -232
205 -351 264 -54 27 -213 89 -243 95 -12 3 -53 12 -92 20 -234 50 -500 27
-690 -59 -301 -137 -494 -434 -499 -768 -1 -38 -2 -39 -31 -33 -16 3 -68 12
-115 21 -127 23 -200 29 -360 29 -131 0 -275 -9 -291 -20 -4 -2 -24 -7 -45
-10 -67 -10 -242 -72 -317 -111 -213 -112 -389 -288 -495 -498 -119 -237 -155
-548 -97 -829 25 -119 66 -235 125 -353 l57 -113 -61 -47 c-333 -259 -536
-658 -536 -1053 0 -58 2 -116 4 -130 3 -14 7 -41 10 -60 12 -73 17 -97 38
-160 23 -72 82 -196 104 -221 8 -8 14 -19 14 -24 0 -12 108 -136 154 -176 171
-148 412 -228 629 -209 32 3 60 3 62 0 1 -3 -28 -75 -66 -160 -38 -85 -81
-184 -95 -220 -14 -36 -32 -78 -40 -95 -40 -90 -147 -392 -213 -600 -63 -201
-162 -564 -177 -654 -3 -14 -12 -55 -20 -91 -28 -122 -78 -397 -98 -541 -4
-25 -9 -57 -11 -70 -7 -40 -33 -259 -39 -329 -4 -36 -9 -89 -11 -117 -3 -29
-7 -77 -10 -105 -25 -277 -25 -991 0 -1258 4 -38 16 -177 20 -225 1 -16 6 -57
9 -90 4 -33 9 -76 12 -95 8 -73 14 -126 19 -150 2 -14 7 -45 10 -70 16 -124
49 -304 92 -504 13 -65 27 -130 29 -145 3 -14 9 -40 15 -57 5 -17 11 -40 13
-50 5 -25 40 -160 64 -249 37 -135 121 -405 173 -550 18 -49 38 -108 46 -130
7 -22 18 -49 23 -60 5 -11 36 -88 68 -170 33 -83 74 -182 92 -220 17 -39 43
-97 58 -130 50 -113 194 -400 263 -526 38 -69 69 -129 69 -133 0 -5 -7 -5 -16
-2 -65 25 -318 27 -419 3 -198 -46 -362 -137 -504 -279 -181 -180 -321 -456
-356 -701 -3 -21 -8 -54 -11 -74 -6 -46 -7 -260 -1 -270 3 -5 8 -30 11 -58 23
-178 131 -388 265 -513 146 -137 360 -222 568 -226 47 -1 50 -6 34 -66 -9 -32
-14 -60 -26 -130 -14 -85 -20 -183 -20 -315 0 -172 8 -248 36 -360 60 -238
154 -410 309 -566 80 -82 255 -209 286 -209 8 0 14 -4 14 -8 0 -5 15 -14 33
-20 17 -6 65 -23 106 -37 76 -27 171 -49 251 -59 51 -7 264 -8 295 -2 11 2 45
7 75 11 129 16 313 78 444 149 l84 45 15 -22 c47 -70 167 -195 262 -271 190
-154 365 -237 605 -286 64 -14 122 -17 240 -15 85 1 169 5 185 9 17 3 40 8 52
11 13 3 24 5 25 4 7 -2 159 57 203 78 297 148 494 450 495 756 0 26 2 47 5 47
2 0 57 -26 122 -58 65 -32 168 -80 228 -106 61 -27 133 -59 160 -71 296 -133
860 -323 1220 -411 55 -13 111 -27 125 -31 117 -30 455 -99 580 -117 19 -3 46
-8 60 -10 14 -3 43 -7 65 -10 22 -3 72 -10 110 -15 68 -10 112 -15 213 -26 26
-3 63 -7 82 -10 34 -4 150 -14 240 -21 172 -12 364 -18 615 -18 315 0 498 7
730 29 33 3 89 7 125 10 36 3 81 7 100 10 219 28 293 39 400 56 69 11 184 31
255 45 72 14 141 28 155 30 102 19 431 103 630 161 274 79 721 240 915 328 28
12 91 40 140 61 113 48 496 238 621 309 52 30 104 57 115 60 18 6 19 4 11 -12
-17 -32 -35 -155 -38 -258 -6 -223 43 -390 172 -585 150 -227 447 -423 735
-485 41 -9 81 -18 89 -19 40 -10 153 -18 225 -18 96 1 160 9 240 29 33 8 65
16 70 17 20 3 131 50 175 74 255 138 420 413 433 720 2 57 8 61 63 42 132 -43
527 -60 702 -30 338 60 587 202 771 441 159 204 238 447 238 727 1 249 -51
463 -162 669 l-44 81 55 42 c274 207 488 562 532 885 4 28 7 118 6 200 -1 127
-5 166 -26 250 -107 416 -430 693 -824 704 -43 1 -80 4 -82 5 -1 2 40 90 92
197 140 290 246 539 337 799 16 47 34 94 39 105 42 95 194 625 255 890 18 76
17 74 40 185 8 41 18 86 20 100 9 40 54 311 61 360 3 25 7 52 9 60 1 8 6 40
10 70 3 30 8 66 10 80 4 24 14 120 20 190 2 19 6 67 10 105 40 436 40 1015 0
1486 -3 43 -8 88 -10 100 -2 13 -6 56 -10 94 -3 39 -8 84 -10 100 -9 58 -16
110 -21 150 -4 38 -58 362 -69 415 -2 14 -7 39 -11 55 -28 146 -62 289 -149
625 -14 55 -63 216 -100 330 -143 438 -303 822 -514 1235 -104 203 -133 257
-191 355 l-28 47 72 0 c167 -2 315 32 458 104 321 161 557 505 624 909 12 71
15 273 5 340 -16 110 -18 121 -50 214 -113 332 -401 547 -765 572 -32 2 -61 6
-64 8 -2 3 3 42 13 87 9 46 18 97 20 114 2 16 7 62 11 100 10 88 11 298 1 387
-32 301 -145 545 -342 744 -226 227 -507 338 -855 338 -140 0 -251 -18 -405
-65 -93 -29 -300 -122 -311 -141 -3 -4 -28 20 -56 55 -277 337 -632 525 -1020
540 -49 2 -89 3 -90 2z m-4268 -700 c102 -4 208 -8 235 -10 97 -7 245 -20 335
-30 19 -2 58 -7 85 -10 28 -3 70 -8 95 -12 25 -3 52 -7 60 -8 36 -4 123 -18
230 -36 143 -25 149 -26 180 -33 14 -3 36 -8 50 -10 145 -26 456 -103 673
-167 172 -50 550 -180 599 -205 15 -8 31 -15 35 -15 9 -2 22 -6 123 -47 41
-17 102 -42 135 -57 33 -15 76 -33 95 -42 207 -88 670 -335 905 -481 309 -192
702 -476 924 -667 240 -207 276 -240 506 -470 214 -213 322 -330 480 -520 149
-178 455 -583 455 -600 0 -3 22 -35 48 -72 63 -90 232 -362 302 -488 108 -195
135 -246 189 -353 192 -383 393 -886 490 -1227 18 -60 36 -121 42 -135 5 -14
11 -34 13 -45 3 -11 23 -92 46 -180 35 -135 66 -275 95 -420 9 -44 64 -374 70
-415 13 -91 39 -328 49 -440 5 -53 17 -243 22 -344 5 -106 4 -559 -1 -651 -14
-261 -17 -303 -20 -330 -3 -16 -7 -64 -10 -105 -3 -41 -7 -86 -9 -100 -4 -22
-14 -105 -21 -165 -1 -11 -5 -42 -9 -70 -4 -27 -10 -63 -12 -80 -2 -16 -6 -41
-9 -55 -2 -14 -6 -41 -9 -60 -3 -19 -12 -71 -21 -115 -8 -44 -18 -96 -21 -115
-20 -125 -111 -496 -176 -715 -63 -213 -186 -564 -258 -735 -126 -299 -301
-662 -420 -870 -109 -189 -109 -190 -146 -247 -19 -29 -34 -55 -34 -57 0 -12
-272 -410 -365 -536 -110 -147 -259 -337 -279 -355 -6 -5 -21 -23 -34 -39 -20
-26 -62 -74 -192 -220 -149 -168 -534 -537 -756 -726 -514 -437 -1182 -858
-1828 -1150 -134 -60 -518 -217 -551 -225 -5 -1 -17 -5 -25 -8 -21 -9 -351
-118 -370 -122 -8 -2 -46 -13 -85 -25 -72 -21 -350 -95 -395 -105 -213 -45
-405 -84 -445 -89 -27 -4 -68 -11 -90 -16 -22 -4 -62 -11 -90 -14 -27 -3 -60
-8 -71 -10 -20 -4 -185 -25 -249 -31 -76 -8 -269 -25 -355 -32 -127 -10 -868
-10 -1000 0 -169 12 -309 24 -360 31 -14 2 -52 7 -85 10 -100 12 -202 25 -240
32 -11 2 -40 7 -65 9 -25 3 -52 8 -61 11 -10 2 -31 6 -48 9 -17 2 -54 8 -83
14 -29 6 -64 12 -78 15 -14 2 -59 12 -100 21 -41 9 -86 18 -100 21 -369 73
-1079 305 -1427 465 -34 16 -64 29 -67 29 -11 0 -433 208 -521 257 -49 28
-112 63 -140 78 -235 130 -582 357 -835 545 -91 68 -167 126 -170 129 -3 3
-27 24 -55 46 -107 86 -312 261 -395 338 -148 138 -463 462 -582 597 -146 167
-226 265 -360 440 -164 216 -353 493 -478 705 -198 333 -375 682 -502 985 -21
52 -43 104 -49 115 -68 150 -275 772 -314 945 -2 8 -19 80 -39 160 -51 213
-112 528 -132 680 -2 19 -6 46 -9 60 -4 25 -9 60 -20 160 -4 30 -9 70 -11 88
-2 18 -6 61 -9 95 -3 34 -7 80 -10 102 -27 255 -27 1205 0 1315 2 8 6 51 10
95 3 44 8 96 10 115 3 19 7 60 10 90 3 30 8 66 10 80 2 14 7 45 10 70 10 73
68 418 79 465 3 11 14 63 25 115 81 389 277 1013 415 1325 8 17 31 71 51 120
38 91 255 536 297 610 12 22 58 103 102 180 259 454 616 948 976 1346 109 121
469 481 583 583 209 187 560 465 752 597 28 19 52 36 55 39 27 29 422 274 645
399 201 114 824 411 861 411 3 0 24 9 47 19 143 65 771 270 940 306 9 2 43 10
75 19 144 37 438 97 590 121 70 11 299 45 341 49 107 13 231 26 306 31 44 3
100 8 125 10 25 2 146 7 270 11 124 3 226 7 227 8 2 2 121 -1 323 -9z"/>
<path d="M9331 16353 c-16 -54 -41 -136 -55 -183 -23 -79 -64 -212 -149 -485
-86 -274 -299 -912 -420 -1255 -149 -425 -168 -475 -181 -485 -10 -7 -729 -10
-2272 -9 -1243 1 -2264 -2 -2269 -6 -7 -6 -10 -1110 -10 -3287 l0 -3278 975
-2 c536 -1 981 -3 989 -3 9 0 12 -9 7 -32 -3 -18 -8 -55 -11 -83 -4 -27 -8
-61 -11 -75 -22 -139 -23 -564 0 -685 2 -11 6 -41 10 -66 34 -235 132 -508
240 -668 20 -29 36 -55 36 -58 0 -10 112 -143 169 -201 185 -185 444 -334 628
-359 119 -16 464 -8 578 13 17 3 39 7 50 9 19 3 84 17 130 28 71 17 153 45
240 80 491 202 833 607 1000 1187 19 66 37 131 39 143 3 12 9 46 15 75 38 192
-91 424 -289 520 -68 33 -83 36 -160 36 -116 0 -194 -36 -289 -131 -113 -114
-166 -208 -206 -368 -123 -494 -334 -871 -603 -1075 -143 -108 -360 -190 -504
-190 -58 0 -79 5 -137 34 -247 122 -439 386 -531 731 -20 76 -47 214 -54 285
-3 25 -8 68 -11 95 -7 58 -7 383 -1 470 3 33 8 83 10 110 3 28 8 77 12 110 3
33 8 62 11 65 2 3 1274 5 2826 5 l2822 0 -1 -60 c-2 -79 -13 -376 -20 -545 -7
-146 -11 -266 -13 -317 l-1 -33 -304 0 -304 0 -36 -41 c-88 -96 -71 -191 34
-199 76 -6 567 -3 725 4 83 3 200 9 260 11 61 3 144 7 185 10 74 4 165 10 350
20 116 7 221 13 320 20 41 3 109 8 150 10 41 3 100 7 130 10 30 2 100 7 155
10 55 3 124 8 154 11 29 2 82 6 118 9 36 2 67 5 69 7 3 4 8 140 29 828 2 63 4
144 4 180 l1 66 1500 -2 c825 -1 1502 2 1505 6 2 4 7 452 9 996 11 2064 19
3968 20 4754 l1 815 -1413 0 c-1224 0 -1414 2 -1422 15 -5 8 -7 17 -5 20 2 4
7 112 10 241 3 129 8 281 10 339 2 58 7 209 10 335 3 127 8 280 10 340 2 61 6
207 10 325 3 118 8 276 10 350 l4 135 -1177 -1 c-647 -1 -1186 -4 -1198 -7
-12 -3 -45 -8 -75 -12 -88 -10 -288 -62 -380 -99 -373 -146 -608 -385 -610
-618 -1 -97 51 -208 133 -284 94 -87 140 -103 289 -102 82 1 108 5 165 28 119
47 180 113 363 396 135 207 227 291 401 367 32 14 98 34 143 43 19 3 19 20 2
-376 -2 -58 -7 -170 -10 -250 -3 -80 -8 -192 -10 -250 -3 -58 -7 -172 -10
-255 -3 -82 -7 -190 -10 -240 -2 -49 -7 -166 -10 -260 -4 -93 -9 -172 -12
-175 -2 -3 -436 -5 -962 -5 l-958 0 -14 65 c-7 36 -14 70 -15 75 -2 6 -5 21
-8 35 -46 217 -132 562 -197 790 -48 168 -139 453 -158 495 -5 11 -28 72 -52
135 -78 214 -195 466 -302 650 -49 83 -174 270 -182 270 -2 0 -17 -44 -34 -97z
m3984 -840 c-4 -244 -11 -584 -20 -958 -3 -104 -7 -296 -10 -425 -3 -129 -7
-327 -10 -440 -3 -113 -7 -308 -10 -435 -14 -603 -14 -617 -30 -1250 -2 -93
-7 -285 -10 -425 -3 -140 -8 -331 -10 -425 -2 -93 -7 -300 -11 -460 -3 -159
-7 -348 -9 -420 -11 -495 -21 -960 -30 -1435 -4 -190 -8 -403 -10 -475 -8
-298 -18 -1137 -18 -1507 -1 -394 -1 -398 -22 -399 -11 -1 -33 -3 -50 -5 -88
-10 -178 -14 -453 -20 l-303 -7 5 119 c4 65 8 169 11 229 3 61 7 155 10 210 3
55 7 159 10 230 3 72 7 171 10 220 2 50 7 149 10 220 3 72 8 175 10 230 3 55
7 152 10 215 3 63 7 162 10 220 6 135 16 385 20 475 10 259 17 408 20 463 2
35 7 130 10 210 3 81 8 188 10 237 5 103 14 302 20 455 2 58 7 170 10 250 3
80 7 188 10 240 2 52 7 156 10 230 3 74 7 182 10 240 5 107 11 238 20 485 11
277 16 391 30 720 2 55 7 168 10 250 3 83 8 200 10 260 3 61 7 178 10 260 3
83 8 195 10 250 2 55 7 170 10 255 3 85 8 205 10 265 3 61 7 182 10 270 3 88
7 216 10 285 13 332 34 1095 35 1268 l0 72 319 0 320 0 -4 -247z m-3611 -1760
c5 -38 32 -196 41 -243 3 -14 7 -43 10 -65 3 -22 7 -49 9 -60 2 -11 7 -42 10
-70 4 -27 9 -61 11 -75 2 -14 6 -43 9 -65 4 -22 8 -51 11 -65 2 -14 7 -47 10
-75 3 -27 10 -80 15 -118 6 -37 12 -89 15 -115 3 -26 8 -58 10 -72 3 -14 7
-54 11 -90 3 -36 8 -74 10 -85 2 -11 6 -45 9 -75 3 -30 7 -66 10 -80 2 -14 7
-54 10 -90 3 -36 8 -78 10 -95 2 -16 6 -59 9 -95 4 -36 9 -85 11 -110 3 -25 7
-70 10 -100 3 -30 7 -73 9 -95 3 -22 7 -78 11 -125 3 -47 8 -101 10 -120 2
-19 6 -73 10 -120 8 -118 14 -199 20 -272 2 -35 7 -103 10 -153 3 -49 8 -126
10 -170 7 -99 15 -276 30 -625 26 -602 26 -2024 0 -2485 -2 -27 -4 -83 -5
-122 -2 -40 -8 -77 -14 -81 -6 -5 -209 -8 -451 -8 -433 1 -440 1 -438 21 1 11
7 63 13 115 11 94 16 145 25 228 3 23 7 61 10 85 2 23 7 74 10 112 3 39 7 84
10 100 2 17 6 64 9 105 4 41 9 100 12 130 10 109 12 136 19 230 3 52 8 115 10
140 2 25 7 97 11 160 3 63 8 133 9 155 2 22 6 112 10 200 5 88 9 180 10 205
25 487 25 1506 0 1950 -16 292 -19 339 -29 480 -6 78 -10 119 -20 235 -2 22
-7 78 -11 125 -4 47 -8 87 -10 90 -2 3 -6 43 -10 90 -4 47 -8 87 -10 90 -2 3
-6 35 -9 71 -4 35 -8 74 -10 86 -3 12 -7 46 -10 75 -4 29 -8 64 -11 78 -3 14
-7 41 -10 60 -2 19 -7 51 -10 72 -6 31 -1 44 39 102 255 368 464 673 476 697
l13 24 8 -27 c4 -15 10 -45 13 -65z m-1265 -68 c-56 -151 -81 -220 -90 -240
-5 -11 -49 -126 -98 -255 -91 -241 -247 -640 -299 -765 l-29 -70 -1807 0
c-994 0 -1811 2 -1815 5 -4 3 -7 319 -6 702 l0 697 40 3 c22 2 961 3 2086 3
l2047 1 -29 -81z m3765 -35 c-1 -104 -9 -325 -19 -550 -2 -47 -7 -150 -10
-230 -3 -80 -8 -206 -11 -280 -3 -74 -6 -159 -7 -188 l-1 -52 -803 2 c-442 2
-803 4 -803 5 0 2 -11 80 -25 175 -14 95 -27 193 -30 218 -3 25 -8 56 -10 70
-2 14 -7 45 -10 70 -7 53 -63 402 -70 445 -25 136 -75 418 -75 423 0 4 422 7
938 7 l937 0 -1 -115z m4219 111 l237 -1 -2 -702 -3 -703 -1273 0 -1274 0 6
185 c10 291 15 452 21 635 12 423 17 580 20 585 3 4 1445 5 2268 1z m-7414
-963 c1 -23 4 -44 6 -48 4 -6 20 -124 31 -225 3 -33 8 -67 9 -76 2 -9 6 -56
10 -105 4 -49 8 -105 10 -124 3 -32 7 -88 20 -335 3 -44 8 -218 11 -387 l7
-306 -39 -10 c-22 -6 -52 -13 -69 -16 -16 -4 -39 -8 -50 -10 -11 -3 -60 -14
-110 -26 -49 -12 -101 -24 -115 -26 -117 -23 -504 -130 -760 -210 -41 -13 -78
-24 -82 -24 -7 0 33 105 89 230 54 123 275 553 353 690 21 36 55 97 75 135 39
72 209 362 250 425 166 261 326 490 343 490 5 0 9 -19 11 -42z m5107 -554 c0
-13 -2 -22 -5 -19 -3 3 -6 17 -7 31 0 13 2 22 5 19 3 -3 6 -17 7 -31z m0 -43
c-3 -5 0 -11 7 -13 6 -2 580 -4 1275 -4 l1263 1 -2 -738 -3 -737 -1295 3
-1296 3 1 104 c1 100 12 480 19 695 2 55 7 206 10 335 7 238 11 353 14 358 0
1 4 2 7 2 3 0 3 -4 0 -9z m-6268 -26 c4 -4 -40 -112 -255 -625 -140 -334 -237
-561 -293 -685 -15 -33 -35 -81 -46 -107 l-19 -48 -1470 3 -1470 2 1 730 c1
402 2 732 3 735 1 6 3543 1 3549 -5z m3950 6 l352 -1 -5 -97 c-3 -54 -7 -159
-10 -233 -5 -160 -14 -381 -20 -500 -2 -47 -7 -168 -11 -270 -4 -102 -8 -207
-9 -235 -1 -27 -3 -69 -4 -93 l-1 -43 -684 4 c-377 1 -687 5 -689 7 -3 3 -8
52 -11 110 -4 58 -9 119 -11 135 -2 17 -6 64 -9 105 -8 102 -15 177 -21 225
-2 22 -7 65 -10 95 -5 53 -22 224 -30 305 -2 22 -7 65 -10 95 -3 30 -7 71 -10
90 -3 19 -7 60 -10 90 -9 90 -16 143 -21 172 -3 15 -3 31 -1 35 3 5 200 7 439
6 238 -1 592 -2 786 -2z m-4642 -1644 c2 -1 -70 -166 -157 -367 -88 -201 -230
-525 -316 -720 -85 -195 -159 -360 -163 -365 -6 -7 -387 -10 -1117 -10 l-1108
0 0 730 c-1 402 2 732 6 735 7 5 2851 2 2855 -3z m4926 -10 c3 -6 5 -14 3 -17
-2 -3 -6 -82 -10 -175 -3 -94 -8 -213 -10 -265 -2 -52 -7 -165 -10 -250 -3
-85 -8 -204 -10 -265 -5 -108 -10 -242 -20 -492 -3 -71 -7 -180 -10 -243 -3
-63 -7 -178 -10 -255 -3 -77 -7 -189 -10 -250 -13 -329 -22 -562 -26 -682 -2
-54 -7 -94 -13 -96 -6 -2 -256 -3 -556 -3 l-545 1 -1 140 c-2 163 -13 688 -19
855 -16 449 -21 573 -30 770 -4 69 -8 159 -10 200 -6 116 -15 278 -20 355 -3
39 -7 104 -10 145 -3 41 -7 116 -10 165 -5 93 -10 154 -21 289 -4 49 -2 81 4
85 6 3 309 5 673 3 486 -2 665 -6 671 -15z m4573 -714 c-1 -401 -3 -730 -4
-733 0 -3 -594 -5 -1318 -5 l-1318 0 1 85 c2 111 15 581 19 690 2 47 7 193 10
325 7 224 11 340 14 358 0 4 585 7 1299 7 l1299 0 -2 -727z m-7519 136 c7
-138 7 -585 0 -724 -3 -49 -5 -104 -5 -120 l-1 -30 -1112 1 c-612 1 -1116 2
-1120 3 -6 1 4 27 40 100 16 31 31 39 197 105 99 39 185 74 190 77 6 4 28 12
50 19 22 7 58 21 80 31 69 31 1670 667 1673 665 1 -2 5 -59 8 -127z m-2696
-1053 c0 -6 -36 -96 -79 -200 -123 -296 -184 -455 -255 -667 -62 -184 -126
-423 -126 -468 0 -19 -6 -21 -65 -21 -36 0 -319 -1 -630 -1 -311 0 -661 1
-778 1 l-212 0 1 678 c1 372 2 679 3 682 2 10 2141 5 2141 -4z m2675 -46 c-13
-164 -16 -197 -20 -220 -2 -14 -7 -61 -10 -104 -4 -43 -8 -86 -10 -95 -1 -9
-6 -47 -10 -86 -4 -38 -9 -77 -10 -86 -2 -9 -6 -40 -10 -70 -3 -30 -8 -65 -10
-79 -2 -14 -7 -45 -10 -70 -12 -89 -76 -456 -84 -480 l-8 -25 -1296 0 c-1256
0 -1297 1 -1297 18 0 77 246 782 425 1217 26 63 49 120 51 125 3 7 397 10
1154 10 l1149 0 -4 -55z m7540 -627 l0 -683 -70 -1 c-38 0 -643 -2 -1342 -3
-1132 -1 -1273 0 -1274 14 -1 20 3 168 6 260 1 41 6 176 9 300 15 484 23 757
25 780 1 13 154 15 1324 15 l1322 0 0 -682z"/>
<path d="M19165 17866 c-182 -47 -417 -265 -427 -397 -3 -34 -3 -34 42 -35 39
-1 126 -10 170 -19 8 -1 56 -10 105 -20 50 -9 104 -19 120 -22 17 -3 50 -8 74
-13 25 -4 85 -7 135 -6 77 1 97 5 130 25 43 27 66 71 66 129 0 44 -24 141 -46
187 -23 49 -108 132 -159 155 -58 26 -145 33 -210 16z"/>
<path d="M1925 17038 c-188 -59 -274 -249 -214 -472 12 -46 69 -105 102 -107
66 -5 129 5 239 37 220 63 303 78 441 78 41 0 67 4 67 11 0 30 -40 148 -65
191 -39 69 -149 173 -220 210 -108 57 -261 79 -350 52z"/>
<path d="M18939 14811 c186 -106 274 -224 401 -541 103 -258 138 -318 211
-367 71 -47 194 -36 275 23 83 61 100 207 38 340 -79 172 -275 334 -535 442
-111 46 -216 78 -424 128 -11 3 4 -9 34 -25z"/>
<path d="M2395 14188 c-180 -24 -390 -117 -524 -233 -193 -167 -310 -365 -317
-539 -2 -67 9 -107 42 -153 47 -63 234 -88 324 -43 79 39 108 81 214 311 102
221 158 311 264 424 64 68 143 134 227 189 66 43 68 46 40 48 -96 5 -218 3
-270 -4z"/>
<path d="M19666 8253 c-88 -20 -135 -70 -208 -223 -33 -69 -80 -165 -104 -215
-60 -126 -132 -230 -222 -322 -93 -95 -117 -115 -205 -173 -54 -36 -64 -46
-50 -52 21 -8 265 -3 308 7 17 3 50 11 74 16 258 57 532 271 658 514 86 166
96 299 28 391 -39 52 -178 80 -279 57z"/>
<path d="M1792 7811 c-66 -23 -89 -43 -118 -106 -31 -65 -31 -139 -1 -225 32
-88 67 -141 151 -226 116 -117 270 -210 478 -288 85 -31 314 -96 342 -96 6 0
-18 17 -53 38 -166 97 -261 230 -377 525 -125 320 -188 398 -321 397 -26 -1
-72 -9 -101 -19z"/>
<path d="M19698 5005 c-2 -1 -25 -5 -53 -7 -27 -3 -115 -23 -195 -46 -186 -52
-253 -64 -371 -65 -108 -1 -100 8 -77 -87 25 -101 100 -209 192 -277 112 -83
202 -113 329 -110 144 4 235 58 293 175 25 49 29 70 31 153 3 112 -15 181 -55
222 -24 23 -84 51 -94 42z"/>
<path d="M1980 4455 c-69 -14 -96 -31 -116 -73 -44 -93 14 -279 115 -368 103
-92 241 -100 396 -22 169 85 328 277 316 383 -1 6 -22 9 -48 7 -44 -3 -97 5
-353 53 -47 8 -112 18 -145 21 -33 3 -71 6 -85 8 -14 1 -50 -2 -80 -9z"/>
<path d="M14610 2852 c-80 -154 -230 -265 -510 -376 -52 -21 -104 -42 -115
-46 -89 -36 -199 -95 -228 -124 -55 -53 -71 -92 -70 -166 4 -286 329 -319 580
-59 105 109 172 216 258 414 34 77 81 229 101 325 2 14 10 40 15 58 18 55 6
45 -31 -26z"/>
<path d="M17323 2802 c-6 -4 -11 -33 -12 -65 0 -33 -2 -66 -5 -75 -3 -10 -7
-35 -11 -57 -4 -34 -30 -170 -51 -270 -3 -16 -7 -79 -10 -140 -3 -99 -1 -115
19 -155 42 -83 117 -99 254 -55 269 85 325 340 133 600 -91 123 -270 246 -317
217z"/>
<path d="M7217 2669 c-3 -19 -3 -88 -2 -154 5 -195 59 -364 170 -536 25 -39
52 -78 58 -85 175 -187 322 -285 477 -317 105 -21 179 -10 233 38 57 50 78
235 37 321 -36 73 -112 124 -330 220 -187 82 -303 158 -424 278 -100 100 -110
112 -164 194 -20 31 -40 60 -43 65 -4 5 -9 -6 -12 -24z"/>
<path d="M4704 2664 c-97 -33 -180 -93 -245 -176 -84 -105 -124 -226 -117
-353 12 -202 164 -327 378 -310 112 8 181 40 201 93 23 59 14 120 -42 317 -48
167 -66 273 -64 377 l2 78 -26 -3 c-14 -1 -54 -11 -87 -23z"/>
</g>
</svg>
